<?xml version="1.0" standalone="no"?>
<!DOCTYPE svg PUBLIC "-//W3C//DTD SVG 20010904//EN"
 "http://www.w3.org/TR/2001/REC-SVG-20010904/DTD/svg10.dtd">
<svg version="1.0" xmlns="http://www.w3.org/2000/svg"
 width="165.000000pt" height="700.000000pt" viewBox="0 0 165.000000 700.000000"
 preserveAspectRatio="xMidYMid meet">

<g transform="translate(0.000000,700.000000) scale(0.100000,-0.100000)"
fill="#000000" stroke="none">
<path d="M1015 6618 c5 -13 8 -40 9 -60 0 -21 5 -38 11 -38 5 0 3 -5 -5 -10
-13 -8 -11 -11 7 -16 18 -5 21 -11 17 -33 -9 -42 -10 -371 -1 -371 4 0 7 -18
7 -40 0 -22 -4 -40 -10 -40 -15 0 -12 -50 3 -51 6 0 3 -4 -8 -9 -17 -7 -17 -9
-2 -9 20 -1 23 -17 5 -23 -9 -3 -13 -30 -14 -86 0 -68 2 -82 15 -82 10 0 12
-3 5 -8 -12 -8 -14 -132 -2 -132 8 0 9 -51 1 -177 l-5 -92 -29 -3 -29 -3 -6
-145 c-4 -110 -9 -147 -20 -153 -8 -4 -14 -19 -14 -32 0 -18 -5 -25 -20 -25
-22 0 -24 -10 -11 -57 7 -24 6 -33 -5 -37 -23 -9 -16 -42 11 -54 14 -6 25 -16
25 -22 0 -6 3 -9 8 -7 4 3 8 -15 9 -39 2 -38 -1 -44 -17 -44 -11 0 -20 -7 -20
-15 0 -8 9 -15 21 -15 11 0 18 -4 14 -10 -3 -5 -12 -7 -19 -4 -7 3 -16 -2 -19
-10 -5 -11 0 -16 13 -16 11 0 20 -7 20 -15 0 -8 -6 -12 -14 -9 -7 3 -16 -2
-20 -11 -4 -12 0 -19 14 -22 24 -6 27 -21 4 -19 -9 0 -19 -5 -21 -11 -3 -8 4
-13 16 -13 12 0 21 -4 21 -10 0 -5 -9 -10 -20 -10 -11 0 -20 -7 -20 -15 0 -8
9 -15 20 -15 11 0 20 -4 20 -10 0 -5 -9 -10 -20 -10 -11 0 -20 -7 -20 -15 0
-8 9 -15 21 -15 12 0 18 -4 13 -11 -4 -6 -7 -47 -6 -90 0 -44 -4 -79 -9 -79
-5 0 -9 -22 -9 -50 l0 -50 -65 0 c-59 0 -65 -2 -57 -17 5 -10 8 -38 6 -62 -2
-44 43 -190 89 -291 24 -52 25 -65 14 -365 -4 -121 -14 -420 -22 -665 -18
-518 -29 -755 -50 -1022 -8 -106 -19 -255 -25 -331 -6 -76 -12 -159 -15 -185
-2 -26 -7 -83 -10 -127 -9 -111 -14 -175 -25 -280 -5 -49 -12 -136 -16 -192
-7 -107 -1 -123 30 -80 14 19 16 20 14 3 -4 -28 17 -30 30 -4 8 17 11 19 11 6
1 -26 21 -32 36 -12 13 18 14 18 15 2 0 -15 20 -28 20 -13 0 20 43 192 52 208
11 21 11 21 19 2 4 -11 8 -64 8 -117 l1 -98 95 0 95 0 1 98 c0 53 4 106 8 117
8 19 8 19 18 0 6 -11 18 -56 28 -100 23 -108 25 -115 36 -115 5 0 9 8 9 17 0
15 1 15 13 -2 18 -23 37 -12 30 18 -4 19 -2 18 12 -5 19 -34 35 -36 36 -5 l0
22 16 -22 c29 -43 36 -27 28 70 -4 50 -8 108 -11 127 -16 155 -53 618 -88
1105 -16 219 -29 515 -46 1020 -10 302 -15 460 -26 723 -5 136 -4 145 19 195
42 91 101 281 88 285 -6 2 -9 7 -6 12 3 4 7 24 10 44 l6 36 -60 0 -61 0 0 50
c0 28 -5 50 -10 50 -6 0 -10 15 -9 33 1 17 -2 58 -6 90 -7 54 -6 57 14 57 12
0 21 6 21 15 0 8 -9 15 -20 15 -11 0 -20 5 -20 10 0 6 9 10 20 10 11 0 20 5
20 11 0 6 -9 13 -20 16 -26 7 -26 23 1 23 12 0 19 5 16 13 -2 6 -12 11 -21 11
-9 -1 -16 4 -16 12 0 8 9 14 20 14 13 0 18 5 13 16 -3 8 -12 13 -19 10 -8 -3
-14 1 -14 9 0 8 7 15 16 15 9 0 14 6 11 13 -2 6 -11 11 -21 9 -9 -2 -16 2 -16
8 0 5 9 10 21 10 14 0 19 5 17 18 -2 10 -11 16 -22 14 -15 -3 -17 3 -14 40 2
24 9 49 16 56 6 7 12 22 12 33 0 10 6 19 14 19 7 0 19 6 25 14 9 11 8 17 -4
30 -10 10 -13 24 -9 41 5 21 3 25 -15 25 -17 0 -21 6 -21 30 0 19 -5 30 -14
30 -11 0 -16 28 -21 123 -4 67 -6 133 -4 147 4 22 0 25 -27 28 -40 4 -44 16
-44 159 0 79 4 113 13 117 8 4 9 8 1 11 -7 4 -9 19 -4 44 4 21 3 48 -1 60 -6
16 -4 23 7 28 13 5 13 7 2 14 -7 5 -8 9 -2 9 15 0 6 132 -10 143 -8 5 -7 10 4
17 12 8 12 10 1 10 -11 0 -11 3 -1 15 10 12 10 15 -1 15 -11 0 -11 3 1 11 11
8 12 12 3 16 -7 2 -13 22 -13 43 0 21 6 41 13 43 9 4 9 6 -1 6 -7 1 -10 6 -7
11 8 14 9 246 1 259 -4 6 -1 11 6 11 8 0 9 3 3 8 -5 4 -10 28 -11 54 0 39 3
48 20 52 16 5 18 8 7 15 -11 7 -11 10 0 15 11 5 11 7 2 12 -17 8 -16 36 2 60
28 38 19 44 -61 44 -75 0 -76 0 -69 -22z m-128 -2484 c-3 -3 -12 -4 -19 -1 -8
3 -5 6 6 6 11 1 17 -2 13 -5z m40 0 c-3 -3 -12 -4 -19 -1 -8 3 -5 6 6 6 11 1
17 -2 13 -5z m380 0 c-3 -3 -12 -4 -19 -1 -8 3 -5 6 6 6 11 1 17 -2 13 -5z
m-317 -904 c0 -5 -5 -10 -11 -10 -5 0 -7 5 -4 10 3 6 8 10 11 10 2 0 4 -4 4
-10z m197 -22 c-3 -7 -5 -2 -5 12 0 14 2 19 5 13 2 -7 2 -19 0 -25z m8 -48 c3
-5 1 -10 -4 -10 -6 0 -11 5 -11 10 0 6 2 10 4 10 3 0 8 -4 11 -10z m-205 -30
c0 -5 -2 -10 -4 -10 -3 0 -8 5 -11 10 -3 6 -1 10 4 10 6 0 11 -4 11 -10z m210
6 c0 -3 -4 -8 -10 -11 -5 -3 -10 -1 -10 4 0 6 5 11 10 11 6 0 10 -2 10 -4z
m-212 -81 c0 -14 -4 -25 -9 -25 -5 0 -9 11 -9 25 0 14 4 25 9 25 5 0 9 -11 9
-25z m212 -6 c0 -10 -4 -19 -10 -19 -5 0 -10 12 -10 26 0 14 4 23 10 19 6 -3
10 -15 10 -26z m-216 -174 c3 -8 1 -15 -4 -15 -6 0 -10 7 -10 15 0 8 2 15 4
15 2 0 6 -7 10 -15z m212 -12 c-10 -10 -19 5 -10 18 6 11 8 11 12 0 2 -7 1
-15 -2 -18z m4 -23 c0 -5 -2 -10 -4 -10 -3 0 -8 5 -11 10 -3 6 -1 10 4 10 6 0
11 -4 11 -10z m-223 -87 c-3 -10 -5 -2 -5 17 0 19 2 27 5 18 2 -10 2 -26 0
-35z m222 15 c0 -27 -2 -29 -8 -13 -5 11 -6 26 -4 33 8 21 13 13 12 -20z
m-222 -90 c-3 -8 -6 -5 -6 6 -1 11 2 17 5 13 3 -3 4 -12 1 -19z m220 0 c-3 -8
-6 -5 -6 6 -1 11 2 17 5 13 3 -3 4 -12 1 -19z m0 -100 c-3 -7 -5 -2 -5 12 0
14 2 19 5 13 2 -7 2 -19 0 -25z m-220 0 c-3 -8 -6 -5 -6 6 -1 11 2 17 5 13 3
-3 4 -12 1 -19z m220 -100 c-3 -7 -5 -2 -5 12 0 14 2 19 5 13 2 -7 2 -19 0
-25z m-217 6 c0 -8 -5 -12 -10 -9 -6 4 -8 11 -5 16 9 14 15 11 15 -7z m0 -96
c0 -5 -4 -8 -10 -8 -5 0 -10 10 -10 23 0 18 2 19 10 7 5 -8 10 -18 10 -22z
m217 0 c-3 -8 -6 -5 -6 6 -1 11 2 17 5 13 3 -3 4 -12 1 -19z m-230 -100 c-3
-7 -5 -2 -5 12 0 14 2 19 5 13 2 -7 2 -19 0 -25z m230 0 c-3 -8 -6 -5 -6 6 -1
11 2 17 5 13 3 -3 4 -12 1 -19z m-230 -190 c-3 -7 -5 -2 -5 12 0 14 2 19 5 13
2 -7 2 -19 0 -25z m240 0 c-3 -7 -5 -2 -5 12 0 14 2 19 5 13 2 -7 2 -19 0 -25z
m-300 -35 c-3 -10 -5 -2 -5 17 0 19 2 27 5 18 2 -10 2 -26 0 -35z m360 -5 c-3
-8 -6 -5 -6 6 -1 11 2 17 5 13 3 -3 4 -12 1 -19z m-360 -60 c-3 -8 -6 -5 -6 6
-1 11 2 17 5 13 3 -3 4 -12 1 -19z m0 -120 c-3 -7 -5 -2 -5 12 0 14 2 19 5 13
2 -7 2 -19 0 -25z m360 0 c-3 -8 -6 -5 -6 6 -1 11 2 17 5 13 3 -3 4 -12 1 -19z
m-290 -190 c-3 -8 -6 -5 -6 6 -1 11 2 17 5 13 3 -3 4 -12 1 -19z m0 -115 c-3
-10 -5 -2 -5 17 0 19 2 27 5 18 2 -10 2 -26 0 -35z m220 0 c-3 -10 -5 -4 -5
12 0 17 2 24 5 18 2 -7 2 -21 0 -30z m-220 -120 c-3 -10 -5 -4 -5 12 0 17 2
24 5 18 2 -7 2 -21 0 -30z m220 0 c-3 -10 -5 -4 -5 12 0 17 2 24 5 18 2 -7 2
-21 0 -30z m-320 -65 c-3 -7 -5 -2 -5 12 0 14 2 19 5 13 2 -7 2 -19 0 -25z
m420 0 c-3 -8 -6 -5 -6 6 -1 11 2 17 5 13 3 -3 4 -12 1 -19z m-320 -55 c-3
-10 -5 -4 -5 12 0 17 2 24 5 18 2 -7 2 -21 0 -30z m220 0 c-3 -10 -5 -4 -5 12
0 17 2 24 5 18 2 -7 2 -21 0 -30z m-320 -65 c-3 -7 -5 -2 -5 12 0 14 2 19 5
13 2 -7 2 -19 0 -25z m420 0 c-3 -7 -5 -2 -5 12 0 14 2 19 5 13 2 -7 2 -19 0
-25z m-317 -45 c-1 -24 -2 -26 -11 -10 -5 9 -7 22 -4 27 10 17 15 11 15 -17z
m217 -10 c-3 -10 -5 -4 -5 12 0 17 2 24 5 18 2 -7 2 -21 0 -30z m-224 -43 c3
-11 1 -18 -4 -14 -5 3 -9 12 -9 20 0 20 7 17 13 -6z m229 -12 c-8 -8 -9 -4 -5
13 4 13 8 18 11 10 2 -7 -1 -18 -6 -23z m-262 -9 c0 -6 -4 -7 -10 -4 -5 3 -10
11 -10 16 0 6 5 7 10 4 6 -3 10 -11 10 -16z m357 -1 c-3 -8 -6 -5 -6 6 -1 11
2 17 5 13 3 -3 4 -12 1 -19z m-450 -40 c-3 -8 -6 -5 -6 6 -1 11 2 17 5 13 3
-3 4 -12 1 -19z m480 0 c-3 -8 -6 -5 -6 6 -1 11 2 17 5 13 3 -3 4 -12 1 -19z
m-360 -50 c-3 -8 -6 -5 -6 6 -1 11 2 17 5 13 3 -3 4 -12 1 -19z m235 -20 c-6
-6 -7 0 -4 19 5 21 7 23 10 9 2 -10 0 -22 -6 -28z m5 -110 c-3 -7 -5 -2 -5 12
0 14 2 19 5 13 2 -7 2 -19 0 -25z m-240 0 c-3 -8 -6 -5 -6 6 -1 11 2 17 5 13
3 -3 4 -12 1 -19z m360 0 c-3 -8 -6 -5 -6 6 -1 11 2 17 5 13 3 -3 4 -12 1 -19z
m-391 -45 c-10 -10 -19 5 -10 18 6 11 8 11 12 0 2 -7 1 -15 -2 -18z m44 17 c0
-5 -5 -10 -11 -10 -5 0 -7 5 -4 10 3 6 8 10 11 10 2 0 4 -4 4 -10z m225 0 c3
-5 1 -10 -4 -10 -6 0 -11 5 -11 10 0 6 2 10 4 10 3 0 8 -4 11 -10z m32 -12
c-3 -8 -6 -5 -6 6 -1 11 2 17 5 13 3 -3 4 -12 1 -19z m-430 -40 c-3 -8 -6 -5
-6 6 -1 11 2 17 5 13 3 -3 4 -12 1 -19z m30 -10 c-3 -7 -5 -2 -5 12 0 14 2 19
5 13 2 -7 2 -19 0 -25z m411 -20 c0 -38 -2 -48 -9 -36 -9 17 -8 88 2 88 3 0 6
-24 7 -52z m92 32 c0 -11 -2 -20 -4 -20 -2 0 -6 9 -9 20 -3 11 -1 20 4 20 5 0
9 -9 9 -20z m27 -2 c-3 -8 -6 -5 -6 6 -1 11 2 17 5 13 3 -3 4 -12 1 -19z
m-390 -20 c-3 -8 -6 -5 -6 6 -1 11 2 17 5 13 3 -3 4 -12 1 -19z m218 13 c3 -5
1 -12 -5 -16 -5 -3 -10 1 -10 9 0 18 6 21 15 7z m-264 -58 c-9 -15 -10 -13
-11 13 0 17 3 34 8 38 11 12 14 -32 3 -51z m31 -5 c-9 -9 -12 -7 -12 12 0 19
3 21 12 12 9 -9 9 -15 0 -24z m258 6 c0 -8 -4 -12 -10 -9 -5 3 -10 13 -10 21
0 8 5 12 10 9 6 -3 10 -13 10 -21z m113 6 c3 -11 1 -18 -4 -14 -5 3 -9 12 -9
20 0 20 7 17 13 -6z m-397 -57 c-10 -10 -19 5 -10 18 6 11 8 11 12 0 2 -7 1
-15 -2 -18z m314 6 c0 -5 -4 -9 -10 -9 -5 0 -10 7 -10 16 0 8 5 12 10 9 6 -3
10 -10 10 -16z m40 0 c0 -5 -4 -9 -10 -9 -5 0 -10 7 -10 16 0 8 5 12 10 9 6
-3 10 -10 10 -16z m50 1 c0 -5 -4 -10 -10 -10 -5 0 -10 5 -10 10 0 6 5 10 10
10 6 0 10 -4 10 -10z m35 0 c3 -5 1 -10 -4 -10 -6 0 -11 5 -11 10 0 6 2 10 4
10 3 0 8 -4 11 -10z m-584 -72 c-9 -31 -9 -31 -10 -6 -1 30 11 67 16 51 2 -6
0 -26 -6 -45z m40 11 l-10 -24 0 26 c-1 14 2 29 6 33 12 12 14 -9 4 -35z m59
29 c0 -7 -5 -20 -10 -28 -8 -12 -10 -9 -10 13 0 15 5 27 10 27 6 0 10 -6 10
-12z m31 -15 c-8 -15 -10 -15 -11 -2 0 17 10 32 18 25 2 -3 -1 -13 -7 -23z
m326 5 c-3 -8 -6 -5 -6 6 -1 11 2 17 5 13 3 -3 4 -12 1 -19z m53 -11 c0 -18
-2 -19 -10 -7 -13 20 -13 43 0 35 6 -3 10 -16 10 -28z m50 -5 c0 -21 -2 -24
-10 -12 -13 20 -13 53 0 45 6 -3 10 -18 10 -33z m38 -27 l1 -20 -9 20 c-5 11
-8 31 -8 45 l0 25 8 -25 c4 -14 8 -34 8 -45z m-543 -42 c-10 -40 -17 -20 -9
23 5 24 9 32 12 21 2 -10 1 -30 -3 -44z m489 12 c5 -29 4 -36 -3 -25 -6 8 -11
28 -11 44 0 39 6 31 14 -19z m-542 -27 c-8 -8 -9 -4 -5 13 4 13 8 18 11 10 2
-7 -1 -18 -6 -23z m597 -13 c0 -5 -4 -3 -9 5 -5 8 -9 22 -9 30 0 16 17 -16 18
-35z"/>
</g>
</svg>
