<?xml version="1.0" standalone="no"?>
<!DOCTYPE svg PUBLIC "-//W3C//DTD SVG 20010904//EN"
 "http://www.w3.org/TR/2001/REC-SVG-20010904/DTD/svg10.dtd">
<svg version="1.0" xmlns="http://www.w3.org/2000/svg"
 width="166.000000pt" height="700.000000pt" viewBox="0 0 166.000000 700.000000"
 preserveAspectRatio="xMidYMid meet">

<g transform="translate(0.000000,700.000000) scale(0.100000,-0.100000)"
fill="#000000" stroke="none">
<path d="M925 6381 c-3 -5 -1 -12 5 -16 5 -3 10 1 10 9 0 18 -6 21 -15 7z"/>
<path d="M930 6243 c0 -33 -2 -62 -4 -64 -3 -3 -8 -99 -11 -214 -4 -134 -10
-212 -17 -216 -6 -4 -7 -12 -3 -19 11 -17 6 -192 -6 -206 -5 -6 -6 -14 -2 -17
5 -6 5 -39 -1 -202 -1 -28 -4 -30 -66 -42 -74 -15 -146 -48 -159 -71 -5 -10
-3 -73 5 -154 48 -480 68 -1031 61 -1623 -4 -258 -9 -510 -11 -560 -3 -49 -8
-133 -11 -185 -27 -488 -50 -783 -96 -1225 -28 -272 -92 -810 -105 -882 l-6
-33 381 0 c225 0 381 4 381 9 0 5 -13 128 -30 273 -174 1553 -185 3069 -31
4293 7 59 6 73 -8 89 -24 28 -80 53 -148 67 l-60 12 -6 111 c-3 61 -1 116 4
122 5 6 5 15 0 20 -13 14 -22 192 -10 199 6 5 7 11 0 18 -9 11 -13 77 -27 407
-6 148 -14 201 -14 93z"/>
</g>
</svg>
