<?xml version="1.0" standalone="no"?>
<!DOCTYPE svg PUBLIC "-//W3C//DTD SVG 20010904//EN"
 "http://www.w3.org/TR/2001/REC-SVG-20010904/DTD/svg10.dtd">
<svg version="1.0" xmlns="http://www.w3.org/2000/svg"
 width="132.000000pt" height="700.000000pt" viewBox="0 0 132.000000 700.000000"
 preserveAspectRatio="xMidYMid meet">

<g transform="translate(0.000000,700.000000) scale(0.100000,-0.100000)"
fill="#000000" stroke="none">
<path d="M560 5585 c0 -146 -3 -265 -7 -265 -5 0 -7 -99 -5 -220 1 -121 -1
-220 -5 -220 -5 0 -17 -13 -26 -30 -18 -30 -18 -30 7 -54 l26 -23 0 -293 c0
-283 -1 -292 -20 -297 -28 -8 -28 -59 1 -66 15 -4 20 -12 17 -29 -3 -20 -10
-24 -53 -28 l-50 -5 -3 -44 c-3 -43 -36 -91 -63 -91 -6 0 -7 -14 -4 -32 3 -18
7 -44 7 -58 1 -14 10 -36 20 -49 23 -30 23 -49 1 -74 -17 -18 -17 -20 8 -41
15 -13 46 -26 69 -30 l41 -6 -5 -53 c-3 -28 -8 -106 -11 -172 -17 -410 -76
-1424 -90 -1560 -3 -27 -7 -88 -10 -135 -3 -47 -15 -213 -26 -370 -11 -157
-22 -325 -25 -375 -4 -49 -11 -166 -18 -258 -6 -92 -10 -170 -7 -173 2 -2 116
-4 252 -4 l248 0 -5 52 c-4 44 -80 1274 -99 1593 -12 209 -35 629 -40 745 -3
69 -8 163 -10 210 -2 47 -7 141 -10 210 -3 69 -8 162 -11 207 l-6 81 48 14
c58 16 73 37 54 73 -12 23 -12 29 3 54 9 16 15 44 14 65 -2 20 0 36 4 36 4 0
9 7 13 15 3 9 -8 28 -29 48 -30 29 -35 41 -35 81 l0 46 -50 0 c-49 0 -50 1
-50 30 0 20 5 30 15 30 10 0 15 10 15 30 0 18 -5 30 -13 30 -11 0 -15 41 -20
188 -11 315 -9 412 8 418 32 13 37 41 12 68 -24 25 -24 27 -30 357 -4 183 -7
401 -7 486 0 146 -1 153 -20 153 -19 0 -20 -7 -20 -265z"/>
</g>
</svg>
