<?xml version="1.0" standalone="no"?>
<!DOCTYPE svg PUBLIC "-//W3C//DTD SVG 20010904//EN"
 "http://www.w3.org/TR/2001/REC-SVG-20010904/DTD/svg10.dtd">
<svg version="1.0" xmlns="http://www.w3.org/2000/svg"
 width="125.000000pt" height="700.000000pt" viewBox="0 0 125.000000 700.000000"
 preserveAspectRatio="xMidYMid meet">

<g transform="translate(0.000000,700.000000) scale(0.100000,-0.100000)"
fill="#000000" stroke="none">
<path d="M591 5527 l-1 -129 -34 3 c-49 5 -54 -7 -11 -22 l37 -14 -7 -220 c-4
-122 -12 -226 -17 -232 -7 -9 -7 -13 1 -13 8 0 11 -55 11 -195 -1 -114 -5
-195 -11 -195 -15 0 -12 -267 4 -273 6 -3 -1 -6 -17 -6 -23 -1 -26 -4 -17 -15
18 -22 13 -256 -5 -256 -10 0 -14 -15 -14 -60 0 -33 -4 -60 -10 -60 -5 0 -10
-20 -10 -45 0 -25 5 -45 10 -45 6 0 10 -25 10 -56 0 -36 5 -61 15 -70 10 -10
15 -35 15 -75 0 -56 -1 -59 -27 -65 -76 -16 -81 -20 -30 -28 l47 -7 0 -228 c0
-246 -1 -250 -55 -252 -30 -2 -30 -2 -2 -6 23 -4 27 -9 27 -36 0 -18 7 -57 15
-87 8 -31 15 -99 15 -156 0 -93 -2 -102 -20 -107 -26 -7 -26 -37 0 -37 11 0
20 -4 20 -9 0 -5 -9 -11 -20 -14 -11 -3 -20 -12 -20 -21 0 -9 8 -16 20 -16 19
0 20 -7 20 -255 0 -248 -1 -255 -20 -255 -12 0 -20 -7 -20 -16 0 -9 9 -18 20
-21 26 -7 26 -19 0 -26 -26 -7 -26 -37 0 -37 11 0 20 -7 20 -15 0 -8 -9 -15
-20 -15 -26 0 -26 -30 0 -37 11 -3 20 -12 20 -19 0 -10 -16 -14 -60 -14 -33 0
-60 -4 -60 -10 0 -6 27 -10 60 -10 l60 0 0 -306 0 -307 -95 -296 c-52 -163
-95 -300 -95 -304 0 -4 18 -7 39 -7 39 0 39 0 51 51 14 57 27 54 32 -6 l3 -40
132 -3 c149 -3 138 -8 146 78 3 34 3 33 21 -22 17 -58 18 -58 57 -58 21 0 39
2 39 5 0 5 -87 278 -151 470 l-39 121 0 312 0 312 60 0 c33 0 60 4 60 10 0 6
-27 10 -60 10 -47 0 -60 3 -60 15 0 8 7 15 15 15 8 0 15 9 15 20 0 11 -7 20
-15 20 -8 0 -15 7 -15 15 0 8 7 15 15 15 8 0 15 9 15 20 0 11 -7 20 -15 20 -8
0 -15 5 -15 10 0 6 6 10 14 10 7 0 16 9 19 20 4 15 0 20 -14 20 -18 0 -19 11
-19 255 0 220 2 255 15 255 8 0 15 9 15 20 0 11 -7 20 -15 20 -8 0 -15 5 -15
10 0 6 7 10 15 10 8 0 15 9 15 20 0 11 -7 20 -15 20 -12 0 -15 19 -15 108 0
59 5 123 10 142 6 19 11 56 11 83 2 45 3 47 33 48 l31 2 -30 4 c-55 8 -55 7
-55 253 l0 228 43 8 c38 6 40 8 17 15 -14 4 -37 10 -52 13 -26 6 -28 10 -28
60 0 38 6 61 20 79 14 18 20 40 20 76 0 28 5 51 10 51 6 0 10 20 10 45 0 25
-4 45 -10 45 -6 0 -10 27 -10 60 0 53 -2 60 -20 60 -11 0 -20 5 -20 10 0 6 3
10 8 10 4 0 6 50 4 111 -2 75 1 115 9 125 9 12 6 14 -20 14 -17 0 -31 5 -31
11 0 5 4 8 10 4 12 -8 17 98 8 210 -4 50 -7 225 -7 389 0 202 -4 301 -11 306
-7 4 -10 45 -9 109 l1 103 34 14 c44 18 43 31 -1 26 l-35 -4 -1 103 c-1 57 -5
115 -9 129 -5 16 -8 -24 -9 -103z m36 -1219 c-3 -8 -6 -5 -6 6 -1 11 2 17 5
13 3 -3 4 -12 1 -19z"/>
</g>
</svg>
