<?xml version="1.0" standalone="no"?>
<!DOCTYPE svg PUBLIC "-//W3C//DTD SVG 20010904//EN"
 "http://www.w3.org/TR/2001/REC-SVG-20010904/DTD/svg10.dtd">
<svg version="1.0" xmlns="http://www.w3.org/2000/svg"
 width="218.000000pt" height="700.000000pt" viewBox="0 0 218.000000 700.000000"
 preserveAspectRatio="xMidYMid meet">

<g transform="translate(0.000000,700.000000) scale(0.100000,-0.100000)"
fill="#000000" stroke="none">
<path d="M1088 4693 c0 -137 -1 -312 -2 -390 0 -110 -3 -143 -13 -143 -7 0
-13 -4 -13 -10 0 -5 5 -10 10 -10 6 0 10 -48 10 -125 0 -107 -2 -125 -16 -125
-10 0 -14 -7 -12 -22 2 -13 -6 -32 -19 -45 -29 -28 -30 -74 -3 -98 18 -16 20
-31 20 -136 0 -84 -4 -119 -12 -123 -10 -5 -10 -7 0 -12 8 -4 12 -28 12 -69 0
-63 0 -64 -33 -74 -42 -14 -101 -74 -122 -123 -30 -73 -14 -162 42 -227 l33
-39 0 -659 0 -659 -30 -23 c-58 -42 -77 -87 -75 -172 1 -82 13 -110 67 -160
l28 -27 -129 -278 -130 -279 -40 -3 c-31 -2 -45 -10 -57 -28 -11 -16 -26 -24
-45 -24 -17 0 -55 -9 -87 -19 -34 -11 -98 -21 -157 -24 -55 -2 -120 -11 -145
-20 -41 -14 46 -15 950 -15 870 0 989 2 950 14 -25 8 -113 21 -196 29 -191 18
-243 30 -254 61 -5 12 -19 24 -31 26 -17 2 -43 37 -101 132 -43 71 -78 139
-78 152 0 35 -11 55 -34 64 -28 11 -142 209 -130 226 5 7 22 31 38 53 24 35
29 51 31 118 2 67 -1 82 -21 115 -13 20 -37 47 -54 59 l-30 23 0 656 0 656 35
34 c38 37 65 108 65 169 -1 71 -66 165 -132 190 l-27 10 0 179 c0 99 -3 186
-6 194 -3 8 3 23 15 33 25 22 26 62 3 95 -10 14 -16 35 -15 47 2 16 -2 23 -12
23 -14 0 -16 18 -16 123 0 82 4 127 12 135 9 9 9 12 -3 12 -12 0 -15 24 -15
143 -1 78 -2 253 -3 390 0 157 -5 247 -11 247 -6 0 -11 -90 -12 -247z m-8
-1863 c0 -27 -4 -50 -10 -50 -5 0 -10 23 -10 50 0 28 5 50 10 50 6 0 10 -22
10 -50z m0 -220 c0 -16 -4 -30 -10 -30 -5 0 -10 14 -10 30 0 17 5 30 10 30 6
0 10 -13 10 -30z m0 -215 c0 -25 -4 -45 -10 -45 -5 0 -10 20 -10 45 0 25 5 45
10 45 6 0 10 -20 10 -45z m0 -210 c0 -19 -4 -35 -10 -35 -5 0 -10 16 -10 35 0
19 5 35 10 35 6 0 10 -16 10 -35z m0 -200 c0 -19 -4 -35 -10 -35 -5 0 -10 16
-10 35 0 19 5 35 10 35 6 0 10 -16 10 -35z m0 -205 c0 -22 -4 -40 -10 -40 -5
0 -10 18 -10 40 0 22 5 40 10 40 6 0 10 -18 10 -40z m179 -728 c51 -91 53
-122 9 -155 -61 -45 -58 -50 -58 99 0 76 2 135 4 133 2 -2 22 -37 45 -77z
m-291 -120 l-3 -37 -22 34 -21 34 21 45 22 45 3 -42 c2 -23 2 -58 0 -79z m463
-184 l28 -48 -53 0 c-29 0 -85 10 -125 23 l-71 23 66 78 67 78 30 -54 c16 -29
42 -74 58 -100z m-501 89 c23 -32 40 -65 40 -80 0 -27 -1 -27 -67 -27 -55 0
-71 -4 -91 -22 -20 -19 -16 -8 22 76 25 54 46 100 46 102 0 12 14 -2 50 -49z"/>
</g>
</svg>
