<?xml version="1.0" standalone="no"?>
<!DOCTYPE svg PUBLIC "-//W3C//DTD SVG 20010904//EN"
 "http://www.w3.org/TR/2001/REC-SVG-20010904/DTD/svg10.dtd">
<svg version="1.0" xmlns="http://www.w3.org/2000/svg"
 width="166.000000pt" height="700.000000pt" viewBox="0 0 166.000000 700.000000"
 preserveAspectRatio="xMidYMid meet">

<g transform="translate(0.000000,700.000000) scale(0.100000,-0.100000)"
fill="#000000" stroke="none">
<path d="M740 4105 l0 -574 -36 -17 c-27 -13 -43 -31 -65 -77 -16 -33 -29 -67
-29 -75 0 -7 -9 -16 -20 -19 -11 -3 -20 -14 -20 -24 0 -11 -7 -22 -15 -25 -8
-4 -15 -16 -15 -28 0 -27 -18 -46 -42 -46 -15 0 -11 -9 21 -49 21 -28 53 -85
71 -128 17 -43 43 -102 57 -132 l26 -55 -12 -515 c-6 -284 -14 -608 -17 -721
-3 -113 -9 -343 -12 -512 -4 -168 -10 -310 -14 -313 -4 -4 -55 -13 -115 -20
-109 -13 -163 -27 -163 -43 0 -5 13 -27 28 -48 15 -21 35 -66 42 -99 13 -53
15 -56 18 -27 4 39 25 38 30 -1 l3 -27 293 0 294 0 5 27 c4 18 1 32 -9 39 -16
13 -19 34 -5 34 15 0 42 -62 35 -82 -3 -12 0 -18 9 -18 9 0 16 15 20 41 3 25
16 52 31 68 14 15 26 39 26 53 0 15 6 29 12 31 10 4 9 8 -2 16 -25 18 -80 30
-185 41 -54 6 -99 11 -100 13 -1 1 -5 155 -9 342 -4 187 -11 493 -16 680 -5
187 -12 484 -15 660 -3 176 -8 335 -11 353 -3 19 -1 39 5 46 6 7 38 68 71 136
34 68 75 143 91 167 27 39 28 43 11 43 -21 0 -32 18 -32 50 0 12 -8 20 -22 22
-15 2 -24 11 -26 26 -2 12 -10 22 -18 22 -8 0 -14 9 -14 20 0 12 -5 26 -10 33
-6 7 -21 32 -33 57 -15 29 -37 52 -60 65 l-36 20 0 535 c0 294 0 552 -1 573 0
20 -4 37 -10 37 -7 0 -10 -198 -10 -575z m-245 -3495 c-3 -5 -10 -10 -16 -10
-5 0 -9 5 -9 10 0 6 7 10 16 10 8 0 12 -4 9 -10z"/>
</g>
</svg>
